<svg width="64" height="64" viewBox="0 0 64 64" xmlns="http://www.w3.org/2000/svg">
  <defs>
    <linearGradient id="g1" x1="0" y1="0" x2="1" y2="1">
      <stop offset="0%" stop-color="#3B82F6"/>
      <stop offset="100%" stop-color="#8B5CF6"/>
    </linearGradient>
    <linearGradient id="g2" x1="0" y1="0" x2="1" y2="1">
      <stop offset="0%" stop-color="#3B82F6" stop-opacity="0.6"/>
      <stop offset="100%" stop-color="#8B5CF6" stop-opacity="0.6"/>
    </linearGradient>
  </defs>
  <rect width="64" height="64" rx="12" fill="#1e1b4b"/>
  <path d="M32 10 C22 10 13 13 13 16 L13 50 C13 50 22 47 32 50 Z" fill="url(#g1)"/>
  <path d="M32 10 C42 10 51 13 51 16 L51 50 C51 50 42 47 32 50 Z" fill="url(#g2)"/>
  <line x1="32" y1="10" x2="32" y2="50" stroke="white" stroke-width="2" stroke-linecap="round" opacity="0.8"/>
  <circle cx="51" cy="13" r="6" fill="#F59E0B"/>
  <path d="M51 8.5 L52.2 12 L56 12 L53 14 L54.2 17.5 L51 15.5 L47.8 17.5 L49 14 L46 12 L49.8 12 Z" fill="white" opacity="0.95"/>
</svg>